<svg xmlns="http://www.w3.org/2000/svg" width="900" height="675" viewBox="0 0 900 675" role="img" aria-labelledby="title desc">
  <title id="title">FaiCONTO editorial plate</title>
  <desc id="desc">Abstract editorial visual placeholder for FaiCONTO.</desc>
  <rect width="900" height="675" fill="#10100f"/>
  <path d="M0 112.5h900M0 225h900M0 337.5h900M0 450h900M0 562.5h900M150 0v675M300 0v675M450 0v675M600 0v675M750 0v675" stroke="#393633" stroke-width="2"/>
  <rect x="60" y="60" width="780" height="555" fill="none" stroke="#f4f0e8" stroke-width="5"/>
  <rect x="102" y="108" width="210" height="336" fill="#f4f0e8"/>
  <path d="M132 158h150M132 210h112M132 262h150M132 314h92M132 366h132" stroke="#10100f" stroke-width="14"/>
  <rect x="354" y="108" width="390" height="54" fill="#d83722"/>
  <rect x="354" y="214" width="300" height="32" fill="#f4f0e8"/>
  <rect x="354" y="282" width="420" height="32" fill="#f4f0e8"/>
  <rect x="354" y="350" width="354" height="32" fill="#f4f0e8"/>
  <text x="92" y="540" fill="#f4f0e8" font-family="Arial Narrow, Helvetica, Arial, sans-serif" font-size="96" font-weight="900">FaiCONTO</text>
  <text x="96" y="588" fill="#f4f0e8" font-family="Consolas, monospace" font-size="22">QUOTES / CONTRACTS / INVOICES</text>
</svg>
