<svg xmlns="http://www.w3.org/2000/svg" width="900" height="675" viewBox="0 0 900 675" role="img" aria-labelledby="title desc">
  <title id="title">ALTAIR editorial plate</title>
  <desc id="desc">Abstract editorial visual placeholder for ALTAIR.</desc>
  <rect width="900" height="675" fill="#f4f0e8"/>
  <path d="M0 75h900M0 150h900M0 225h900M0 300h900M0 375h900M0 450h900M0 525h900M0 600h900M75 0v675M150 0v675M225 0v675M300 0v675M375 0v675M450 0v675M525 0v675M600 0v675M675 0v675M750 0v675M825 0v675" stroke="#d4cec3" stroke-width="2"/>
  <rect x="54" y="54" width="792" height="567" fill="none" stroke="#10100f" stroke-width="5"/>
  <circle cx="236" cy="220" r="38" fill="#10100f"/>
  <circle cx="380" cy="144" r="26" fill="#d83722"/>
  <circle cx="526" cy="246" r="34" fill="#10100f"/>
  <circle cx="678" cy="164" r="24" fill="#10100f"/>
  <circle cx="312" cy="392" r="30" fill="#10100f"/>
  <circle cx="488" cy="464" r="42" fill="#d83722"/>
  <circle cx="704" cy="408" r="32" fill="#10100f"/>
  <path d="M236 220l144-76 146 102 152-82M236 220l76 172 176 72 216-56M526 246l-38 218M312 392l392 16" fill="none" stroke="#10100f" stroke-width="8"/>
  <path d="M102 105h126M102 144h92M102 183h148" stroke="#10100f" stroke-width="18"/>
  <path d="M102 496h210M102 548h346" stroke="#d83722" stroke-width="24"/>
  <rect x="574" y="506" width="206" height="38" fill="#10100f"/>
  <rect x="574" y="558" width="148" height="24" fill="#10100f"/>
  <text x="96" y="612" fill="#10100f" font-family="Arial Narrow, Helvetica, Arial, sans-serif" font-size="88" font-weight="900">ALTAIR</text>
  <text x="578" y="612" fill="#10100f" font-family="Consolas, monospace" font-size="21">SOCIAL ANALYSIS / PRIVATE SYSTEM</text>
</svg>
