<svg xmlns="http://www.w3.org/2000/svg" width="900" height="675" viewBox="0 0 900 675" role="img" aria-labelledby="title desc">
  <title id="title">Qonecto editorial plate</title>
  <desc id="desc">Abstract editorial visual placeholder for Qonecto.</desc>
  <rect width="900" height="675" fill="#f4f0e8"/>
  <path d="M0 135h900M0 270h900M0 405h900M0 540h900M150 0v675M300 0v675M450 0v675M600 0v675M750 0v675" stroke="#d4cec3" stroke-width="2"/>
  <rect x="54" y="54" width="792" height="567" fill="none" stroke="#10100f" stroke-width="5"/>
  <rect x="96" y="96" width="186" height="186" fill="#10100f"/>
  <rect x="122" y="122" width="42" height="42" fill="#f4f0e8"/>
  <rect x="202" y="122" width="42" height="42" fill="#f4f0e8"/>
  <rect x="122" y="202" width="42" height="42" fill="#f4f0e8"/>
  <rect x="190" y="190" width="68" height="68" fill="#d83722"/>
  <rect x="330" y="96" width="420" height="48" fill="#10100f"/>
  <rect x="330" y="176" width="330" height="28" fill="#10100f"/>
  <rect x="330" y="230" width="474" height="28" fill="#10100f"/>
  <path d="M96 360h708" stroke="#10100f" stroke-width="18"/>
  <path d="M96 420h520" stroke="#d83722" stroke-width="18"/>
  <text x="96" y="560" fill="#10100f" font-family="Arial Narrow, Helvetica, Arial, sans-serif" font-size="94" font-weight="900">QONECTO</text>
  <text x="100" y="606" fill="#10100f" font-family="Consolas, monospace" font-size="22">QR / GDPR / ACCESS / CAMPAIGNS</text>
</svg>
